<svg xmlns="http://www.w3.org/2000/svg" width="111.83" height="94.631" viewBox="0 0 111.83 94.631">
  <g id="Group_1166" data-name="Group 1166" transform="translate(80)">
    <path id="Path_1" data-name="Path 1" d="M13.42,506.524v9.3H10.237v-8.837c0-2.959-1.428-3.955-3.381-3.955-2.04,0-3.6,1.342-3.611,4.055v8.742H.059v-15.3H3.253v2.18a5.13,5.13,0,0,1,4.539-2.471C11.079,500.243,13.42,502.35,13.42,506.524Z" transform="translate(-80.059 -435.419)" fill="#bece20"/>
    <path id="Path_2" data-name="Path 2" d="M101.129,508.136a7.672,7.672,0,0,1,7.457-7.9,6.691,6.691,0,0,1,5.461,2.507v-2.219h3.164v15.256h-3.179v-2.217a6.676,6.676,0,0,1-5.442,2.507A7.7,7.7,0,0,1,101.129,508.136Zm13.117,0a4.921,4.921,0,0,0-4.961-5.057,5,5,0,0,0-3.487,1.52,5.11,5.11,0,0,0,0,7.1,5,5,0,0,0,3.487,1.52A4.937,4.937,0,0,0,114.246,508.136Z" transform="translate(-168.016 -435.419)" fill="#bece20"/>
    <path id="Path_3" data-name="Path 3" d="M237.1,502.148l-6.735,15.34h-2.393l-6.706-15.34h3.41l4.5,11.458,4.513-11.458Z" transform="translate(-272.568 -437.079)" fill="#bece20"/>
    <path id="Path_4" data-name="Path 4" d="M322.338,508.136a7.726,7.726,0,0,1,7.572-7.9,6.836,6.836,0,0,1,5.545,2.507v-2.219h3.213v15.256h-3.228v-2.217a6.82,6.82,0,0,1-5.526,2.507A7.758,7.758,0,0,1,322.338,508.136Zm13.319,0a4.958,4.958,0,0,0-5.038-5.057,5.072,5.072,0,0,0,0,10.142A4.974,4.974,0,0,0,335.657,508.136Z" transform="translate(-360.525 -435.419)" fill="#bece20"/>
    <path id="Path_7" data-name="Path 7" d="M714.314,451.855a2,2,0,1,0-1.411-.579,1.986,1.986,0,0,0,1.411.579Z" transform="translate(-699.902 -389.857)" fill="#4f5b60"/>
    <path id="Path_8" data-name="Path 8" d="M725.267,470.466h-3.2v4.2h-6.78v15.178h3.18V477.11h3.6v8.285c0,2.88,1.835,4.442,4.616,4.442h2.294v-2.565h-1.649a1.99,1.99,0,0,1-2.064-2.25V477.11h3.741v-2.452h-3.741Z" transform="translate(-702.495 -409.507)" fill="#4f5b60"/>
    <path id="Path_9" data-name="Path 9" d="M837.582,502.787H834.4v15.178h3.182Z" transform="translate(-806.152 -437.635)" fill="#4f5b60"/>
    <path id="Path_10" data-name="Path 10" d="M833.426,451.855a2,2,0,1,0-1.412-.578A1.985,1.985,0,0,0,833.426,451.855Z" transform="translate(-803.559 -389.857)" fill="#4f5b60"/>
    <g id="Group_853" data-name="Group 853">
      <path id="Path_267" data-name="Path 267" d="M0,0H111.83V94.434H0Z" transform="translate(-80)" fill="none"/>
      <path id="Path_14" data-name="Path 14" d="M482.329,254.194a5.689,5.689,0,0,1-1.713-3.6,4.806,4.806,0,0,1,3.73.519,5.7,5.7,0,0,1,1.713,3.6A4.8,4.8,0,0,1,482.329,254.194Z" transform="translate(-498.269 -218.017)" fill="#bece20"/>
      <path id="Path_15" data-name="Path 15" d="M531.078,70.652c-1.143,2.255-4.166,2.964-4.166,2.964s-1.171-2.945-.028-5.2,4.166-2.964,4.166-2.964S532.221,68.4,531.078,70.652Z" transform="translate(-538.099 -57.039)" fill="#bece20"/>
      <path id="Path_16" data-name="Path 16" d="M583.272,80.852a5.459,5.459,0,0,1,.175,3.886,5.092,5.092,0,0,1-3.2-2.052,5.457,5.457,0,0,1-.175-3.886A5.1,5.1,0,0,1,583.272,80.852Z" transform="translate(-584.565 -68.656)" fill="#bece20"/>
      <path id="Path_17" data-name="Path 17" d="M467.845,67.008c-1.714-2.8-5.811-3.463-5.811-3.463s-1.321,3.882.385,6.683,5.811,3.461,5.811,3.461S469.559,69.81,467.845,67.008Z" transform="translate(-481.673 -55.38)" fill="#bece20"/>
      <path id="Path_18" data-name="Path 18" d="M439.691,117.688a4.348,4.348,0,0,0-2.934-.727,3.751,3.751,0,0,0,1.023,2.694,4.325,4.325,0,0,0,2.934.727A3.769,3.769,0,0,0,439.691,117.688Z" transform="translate(-460.099 -101.847)" fill="#bece20"/>
      <path id="Path_19" data-name="Path 19" d="M388.249,88.2c-1.679-1.844-4.84-1.769-4.84-1.769s-.427,3.058,1.252,4.91,4.835,1.769,4.835,1.769S389.93,90.05,388.249,88.2Z" transform="translate(-413.631 -75.295)" fill="#bece20"/>
      <path id="Path_20" data-name="Path 20" d="M463.135,222.195a3.8,3.8,0,0,0,2.617-.123,3.384,3.384,0,0,0-1.589-1.956,3.745,3.745,0,0,0-2.617.123A3.349,3.349,0,0,0,463.135,222.195Z" transform="translate(-481.673 -191.464)" fill="#bece20"/>
      <path id="Path_21" data-name="Path 21" d="M394.869,166.684a3.141,3.141,0,0,0-.819-2.07A3.067,3.067,0,0,0,392.9,166.5a3.139,3.139,0,0,0,.821,2.07A3.06,3.06,0,0,0,394.869,166.684Z" transform="translate(-421.929 -143.336)" fill="#bece20"/>
      <path id="Path_22" data-name="Path 22" d="M399.094,203.091c1.914,1.105,4.543.2,4.543.2s-.481-2.7-2.394-3.8-4.533-.2-4.533-.2S397.173,201.983,399.094,203.091Z" transform="translate(-425.247 -173.209)" fill="#bece20"/>
      <path id="Path_23" data-name="Path 23" d="M614.912,52.16c.483,2.392-1.4,4.788-1.4,4.788s-2.66-1.481-3.143-3.868,1.4-4.792,1.4-4.792S614.43,49.77,614.912,52.16Z" transform="translate(-611.118 -42.104)" fill="#bece20"/>
      <path id="Path_24" data-name="Path 24" d="M437.509,42.83a3.909,3.909,0,0,0-1.871-2.169,3.925,3.925,0,0,0-.731,2.775,3.893,3.893,0,0,0,1.866,2.173A3.875,3.875,0,0,0,437.509,42.83Z" transform="translate(-458.439 -35.465)" fill="#bece20"/>
      <path id="Path_25" data-name="Path 25" d="M709.492,356.508a5.679,5.679,0,0,0-2.786-3.1,4.508,4.508,0,0,0,1.822,7.175A5.736,5.736,0,0,0,709.492,356.508Z" transform="translate(-694.097 -307.633)" fill="#bece20"/>
      <path id="Path_26" data-name="Path 26" d="M473.138,375.287a3.925,3.925,0,0,1,.344-2.813,3.794,3.794,0,0,1,2.078,1.888,3.928,3.928,0,0,1-.344,2.813A3.853,3.853,0,0,1,473.138,375.287Z" transform="translate(-491.631 -324.229)" fill="#bece20"/>
      <path id="Path_27" data-name="Path 27" d="M425.764,84.732a3.447,3.447,0,0,0-2.357.023,2.956,2.956,0,0,0,1.354,1.783,3.459,3.459,0,0,0,2.357-.023A2.946,2.946,0,0,0,425.764,84.732Z" transform="translate(-448.481 -73.635)" fill="#bece20"/>
      <path id="Path_28" data-name="Path 28" d="M502.64,9.5c-.515,2.527-3.321,4.08-3.321,4.08s-1.97-2.546-1.455-5.074,3.323-4.08,3.323-4.08S503.158,6.974,502.64,9.5Z" transform="translate(-513.204 -3.933)" fill="#bece20"/>
      <path id="Path_29" data-name="Path 29" d="M568.724,5.063c1.071,1.98.087,4.634.087,4.634s-2.728-.556-3.792-2.541-.087-4.634-.087-4.634S567.651,3.085,568.724,5.063Z" transform="translate(-571.289 -2.274)" fill="#bece20"/>
      <path id="Path_30" data-name="Path 30" d="M621.053,2.98a4.1,4.1,0,0,1-.805,3.078A4.454,4.454,0,0,1,618,3.692,4.142,4.142,0,0,1,618.8.615,4.487,4.487,0,0,1,621.053,2.98Z" transform="translate(-617.757 -0.614)" fill="#bece20"/>
      <path id="Path_31" data-name="Path 31" d="M655.327,28.612a4.568,4.568,0,0,1-2.795,1.742,4.223,4.223,0,0,1,.092-3.209,4.561,4.561,0,0,1,2.795-1.74A4.221,4.221,0,0,1,655.327,28.612Z" transform="translate(-647.63 -22.188)" fill="#bece20"/>
      <path id="Path_32" data-name="Path 32" d="M716.092,74.106a4.115,4.115,0,0,1-2.236,2.015,3.945,3.945,0,0,1-.446-2.932,4.122,4.122,0,0,1,2.236-2.017A3.941,3.941,0,0,1,716.092,74.106Z" transform="translate(-700.735 -62.018)" fill="#bece20"/>
      <path id="Path_33" data-name="Path 33" d="M661.286,150.44a4.7,4.7,0,0,1-3.321.294,4.363,4.363,0,0,1,1.626-2.808,4.718,4.718,0,0,1,3.323-.294A4.339,4.339,0,0,1,661.286,150.44Z" transform="translate(-652.608 -128.401)" fill="#bece20"/>
      <path id="Path_34" data-name="Path 34" d="M652.86,65.536c1.447-2.937,5.343-3.9,5.343-3.9s1.55,3.8.1,6.74-5.343,3.9-5.343,3.9S651.414,68.468,652.86,65.536Z" transform="translate(-647.629 -53.72)" fill="#bece20"/>
      <path id="Path_35" data-name="Path 35" d="M672.27,167.64c2.529-1.837,6.291-.858,6.291-.858s-.337,3.958-2.865,5.795-6.289.86-6.289.86S669.743,169.479,672.27,167.64Z" transform="translate(-662.564 -144.996)" fill="#bece20"/>
      <path id="Path_36" data-name="Path 36" d="M776.964,152.151a3.728,3.728,0,0,1-2.663.914,4.071,4.071,0,0,1,.779-2.792,3.719,3.719,0,0,1,2.661-.912A4.071,4.071,0,0,1,776.964,152.151Z" transform="translate(-753.841 -130.06)" fill="#bece20"/>
      <path id="Path_37" data-name="Path 37" d="M748.9,135.07a4.373,4.373,0,0,1-1.672,2.816,3.319,3.319,0,1,1,1.672-2.816Z" transform="translate(-728.947 -115.124)" fill="#bece20"/>
      <path id="Path_38" data-name="Path 38" d="M771.706,185.637a4.412,4.412,0,0,1,2.553,1.971,4.574,4.574,0,0,1-3.137.9,4.419,4.419,0,0,1-2.553-1.971A4.584,4.584,0,0,1,771.706,185.637Z" transform="translate(-748.862 -161.592)" fill="#bece20"/>
      <path id="Path_39" data-name="Path 39" d="M725.38,208.475c2.457.038,4.421,2.422,4.421,2.422s-2.024,2.312-4.486,2.278-4.421-2.428-4.421-2.428S722.923,208.431,725.38,208.475Z" transform="translate(-707.374 -181.507)" fill="#bece20"/>
      <path id="Path_40" data-name="Path 40" d="M640.918,235.855c3.006-1.536,6.956,0,6.956,0s-.924,4.032-3.93,5.564-6.956,0-6.956,0S637.913,237.392,640.918,235.855Z" transform="translate(-634.353 -204.74)" fill="#bece20"/>
      <path id="Path_41" data-name="Path 41" d="M788.43,237.08a4.157,4.157,0,0,1,2.745,1.433,4.206,4.206,0,0,1-2.7,1.535,4.117,4.117,0,0,1-2.745-1.435A4.164,4.164,0,0,1,788.43,237.08Z" transform="translate(-763.799 -206.4)" fill="#bece20"/>
      <path id="Path_42" data-name="Path 42" d="M739.9,331.524c-2.261-1.6-5.653-.807-5.653-.807s.258,3.386,2.512,4.986,5.653.806,5.653.806S742.15,333.123,739.9,331.524Z" transform="translate(-718.99 -287.718)" fill="#bece20"/>
      <path id="Path_43" data-name="Path 43" d="M790.256,319.2a3.44,3.44,0,0,0-2.617.434,3.762,3.762,0,0,0,1.825,2.038,3.485,3.485,0,0,0,2.629-.434A3.8,3.8,0,0,0,790.256,319.2Z" transform="translate(-765.458 -277.761)" fill="#bece20"/>
      <path id="Path_44" data-name="Path 44" d="M742.4,265.975c2.938-1.018,6.292.958,6.292.958s-1.411,3.629-4.349,4.645-6.29-.959-6.29-.959S739.466,266.993,742.4,265.975Z" transform="translate(-722.309 -231.293)" fill="#bece20"/>
      <path id="Path_45" data-name="Path 45" d="M693.663,281.923a5.361,5.361,0,0,1,3.822-.944,4.211,4.211,0,0,1-5.195,4.622A5.356,5.356,0,0,1,693.663,281.923Z" transform="translate(-682.479 -244.57)" fill="#bece20"/>
      <path id="Path_46" data-name="Path 46" d="M357.681,212.09c-1.689-1.843-4.8-1.707-4.8-1.707s-.378,3.121,1.321,4.96,4.8,1.717,4.8,1.717S359.361,213.923,357.681,212.09Z" transform="translate(-387.078 -183.166)" fill="#bece20"/>
      <path id="Path_47" data-name="Path 47" d="M347.532,173.039a3.778,3.778,0,0,0,2.638-1.021,3.861,3.861,0,0,0-2.309-1.664,3.783,3.783,0,0,0-2.639,1.023A3.84,3.84,0,0,0,347.532,173.039Z" transform="translate(-380.439 -148.316)" fill="#bece20"/>
      <path id="Path_48" data-name="Path 48" d="M340.663,135.172a4.2,4.2,0,0,0,3.043.688,4.338,4.338,0,0,0-1.16-2.931,4.213,4.213,0,0,0-3.047-.688A4.329,4.329,0,0,0,340.663,135.172Z" transform="translate(-375.461 -115.124)" fill="#bece20"/>
      <path id="Path_49" data-name="Path 49" d="M357.182,96.13a3.662,3.662,0,0,0-1.683-2.074,3.838,3.838,0,0,0-.695,2.627,3.663,3.663,0,0,0,1.681,2.074A3.826,3.826,0,0,0,357.182,96.13Z" transform="translate(-388.737 -81.933)" fill="#bece20"/>
      <path id="Path_50" data-name="Path 50" d="M419.277,255c2.139,2.46,6.239,2.43,6.239,2.43s.632-4.019-1.5-6.477-6.239-2.43-6.239-2.43S417.137,252.538,419.277,255Z" transform="translate(-443.504 -216.357)" fill="#bece20"/>
      <path id="Path_51" data-name="Path 51" d="M320.989,216.5a3.706,3.706,0,0,0,2.362.915,2.965,2.965,0,0,0-.513-2.3,3.708,3.708,0,0,0-2.36-.916A2.994,2.994,0,0,0,320.989,216.5Z" transform="translate(-358.865 -186.485)" fill="#bece20"/>
      <path id="Path_52" data-name="Path 52" d="M342.09,278.444c2.734.457,5.4-1.7,5.4-1.7s-1.764-2.906-4.5-3.365-5.4,1.7-5.4,1.7S339.357,277.984,342.09,278.444Z" transform="translate(-373.802 -237.932)" fill="#bece20"/>
      <path id="Path_53" data-name="Path 53" d="M298.573,250.513c-1.845.458-2.933,2.722-2.933,2.722s1.9,1.522,3.747,1.065,2.933-2.729,2.933-2.729S300.418,250.057,298.573,250.513Z" transform="translate(-337.291 -218.017)" fill="#bece20"/>
      <path id="Path_54" data-name="Path 54" d="M310.851,322.747a5.411,5.411,0,0,0,3.158-2.391,4.273,4.273,0,0,0-6.927,1.158A5.435,5.435,0,0,0,310.851,322.747Z" transform="translate(-347.249 -277.761)" fill="#bece20"/>
      <path id="Path_55" data-name="Path 55" d="M342.556,355.312a4.726,4.726,0,0,0-3.056,1.805,3.629,3.629,0,0,0,6.185-.148A4.7,4.7,0,0,0,342.556,355.312Z" transform="translate(-375.461 -309.292)" fill="#bece20"/>
      <path id="Path_56" data-name="Path 56" d="M377.365,319.25c-2.326.691-3.539,3.431-3.539,3.431s2.556,1.618,4.88.927,3.531-3.431,3.531-3.431S379.689,318.56,377.365,319.25Z" transform="translate(-405.333 -277.761)" fill="#bece20"/>
      <path id="Path_57" data-name="Path 57" d="M392.559,359.741c-2.664,1.377-3.477,4.97-3.477,4.97s3.507,1.361,6.172-.015,3.477-4.97,3.477-4.97S395.224,358.365,392.559,359.741Z" transform="translate(-418.61 -312.612)" fill="#bece20"/>
      <path id="Path_58" data-name="Path 58" d="M539.228,235.708a4.851,4.851,0,0,0-2.584-2.443,4.8,4.8,0,0,0-.572,3.5,4.844,4.844,0,0,0,2.584,2.443A4.786,4.786,0,0,0,539.228,235.708Z" transform="translate(-546.396 -203.081)" fill="#bece20"/>
      <path id="Path_59" data-name="Path 59" d="M612.3,197.714c-1.617,2.665-5.413,3.247-5.413,3.247s-1.174-3.739.445-6.4,5.413-3.245,5.413-3.245S613.918,195.049,612.3,197.714Z" transform="translate(-607.8 -166.571)" fill="#bece20"/>
      <path id="Path_60" data-name="Path 60" d="M570.489,266.016c-.608,1.981-3.051,3.029-3.051,3.029s-1.468-2.164-.86-4.146,3.057-3.029,3.057-3.029S571.095,264.035,570.489,266.016Z" transform="translate(-572.949 -227.975)" fill="#bece20"/>
      <path id="Path_61" data-name="Path 61" d="M530.717,142.894c.864,3.212-1.461,6.651-1.461,6.651s-3.723-1.769-4.587-4.983,1.463-6.645,1.463-6.645S529.856,139.681,530.717,142.894Z" transform="translate(-536.438 -120.103)" fill="#bece20"/>
      <path id="Path_62" data-name="Path 62" d="M417,150.528c2.8,1.953,3.2,6.2,3.2,6.2s-4.139,1.082-6.94-.871-3.2-6.2-3.2-6.2S414.2,148.576,417,150.528Z" transform="translate(-436.865 -130.06)" fill="#bece20"/>
      <path id="Path_63" data-name="Path 63" d="M723.078,252.353a3.682,3.682,0,0,1,2.517.9,3.644,3.644,0,0,1-2.181,1.532,3.694,3.694,0,0,1-2.519-.9A3.674,3.674,0,0,1,723.078,252.353Z" transform="translate(-707.374 -219.676)" fill="#bece20"/>
      <path id="Path_64" data-name="Path 64" d="M714.675,118.549a4.889,4.889,0,0,1-2.991,1.927,4.682,4.682,0,0,1,.076-3.516,4.891,4.891,0,0,1,2.989-1.927A4.721,4.721,0,0,1,714.675,118.549Z" transform="translate(-699.075 -100.188)" fill="#bece20"/>
      <path id="Path_65" data-name="Path 65" d="M497.913,195.711c-.582-2.116.916-4.4.916-4.4a6.079,6.079,0,0,1,3.022,3.27c.582,2.116-.916,4.4-.916,4.4A6.079,6.079,0,0,1,497.913,195.711Z" transform="translate(-513.205 -166.571)" fill="#bece20"/>
      <path id="Path_66" data-name="Path 66" d="M498.059,152.761a3.569,3.569,0,0,1,2.195-1.5,3.789,3.789,0,0,1-.036,2.709,3.572,3.572,0,0,1-2.195,1.5A3.841,3.841,0,0,1,498.059,152.761Z" transform="translate(-513.204 -131.719)" fill="#bece20"/>
      <path id="Path_67" data-name="Path 67" d="M475.054,142.076a2.818,2.818,0,0,1,.24-2.253,3.367,3.367,0,0,1,1.918,1.458,2.822,2.822,0,0,1-.24,2.253A3.393,3.393,0,0,1,475.054,142.076Z" transform="translate(-493.29 -121.762)" fill="#bece20"/>
      <path id="Path_68" data-name="Path 68" d="M577.954,138.816a5.042,5.042,0,0,1,2.414-2.806,5.239,5.239,0,0,1,.887,3.629,5,5,0,0,1-2.4,2.8A5.2,5.2,0,0,1,577.954,138.816Z" transform="translate(-582.906 -118.443)" fill="#bece20"/>
      <path id="Path_69" data-name="Path 69" d="M587.432,187.748A3.644,3.644,0,0,1,589,185.591a3.709,3.709,0,0,1,.854,2.543,3.644,3.644,0,0,1-1.571,2.157A3.708,3.708,0,0,1,587.432,187.748Z" transform="translate(-591.204 -161.592)" fill="#bece20"/>
      <path id="Path_70" data-name="Path 70" d="M616.978,131.468c-.7,2.392-3.58,3.666-3.58,3.666s-1.736-2.6-1.033-4.993,3.581-3.666,3.581-3.666S617.682,129.076,616.978,131.468Z" transform="translate(-612.778 -110.146)" fill="#bece20"/>
      <path id="Path_71" data-name="Path 71" d="M568.644,228.84a3.621,3.621,0,0,1,2.2-1.3,3.075,3.075,0,0,1-.093,2.416,3.616,3.616,0,0,1-2.2,1.3A3.076,3.076,0,0,1,568.644,228.84Z" transform="translate(-574.608 -198.102)" fill="#bece20"/>
      <path id="Path_72" data-name="Path 72" d="M562.685,116.827a3.272,3.272,0,0,1,1.6-1.794,3.529,3.529,0,0,1,.491,2.412,3.264,3.264,0,0,1-1.6,1.794A3.518,3.518,0,0,1,562.685,116.827Z" transform="translate(-569.63 -100.188)" fill="#bece20"/>
      <path id="Path_73" data-name="Path 73" d="M671.457,374.052a3.43,3.43,0,0,1,1.907-1.578,3.169,3.169,0,0,1,.279,2.388,3.414,3.414,0,0,1-1.9,1.571A3.118,3.118,0,0,1,671.457,374.052Z" transform="translate(-664.225 -324.229)" fill="#bece20"/>
      <path id="Path_74" data-name="Path 74" d="M380.06,126.631a3.658,3.658,0,0,0-1.706-2.063,3.829,3.829,0,0,0-.659,2.637,3.658,3.658,0,0,0,1.7,2.063A3.837,3.837,0,0,0,380.06,126.631Z" transform="translate(-408.652 -108.486)" fill="#bece20"/>
      <path id="Path_75" data-name="Path 75" d="M462.221,29.927a3.564,3.564,0,0,1,.882,2.493,3.691,3.691,0,0,1-2.578-.691,3.575,3.575,0,0,1-.884-2.493A3.676,3.676,0,0,1,462.221,29.927Z" transform="translate(-480.014 -25.508)" fill="#bece20"/>
      <path id="Path_76" data-name="Path 76" d="M545.767,31.282a3.04,3.04,0,0,1-1.272,1.9,2.971,2.971,0,0,1-.943-2.061,3.082,3.082,0,0,1,1.266-1.9A2.985,2.985,0,0,1,545.767,31.282Z" transform="translate(-553.034 -25.508)" fill="#bece20"/>
      <path id="Path_77" data-name="Path 77" d="M297.579,296.7a3.521,3.521,0,0,0,2.515-.631,2.769,2.769,0,0,0-4.453-1.086A3.5,3.5,0,0,0,297.579,296.7Z" transform="translate(-337.291 -256.186)" fill="#bece20"/>
      <path id="Path_78" data-name="Path 78" d="M808.179,300.074a2.742,2.742,0,0,1,1.993.421,2.8,2.8,0,0,1-1.469,1.426,2.727,2.727,0,0,1-1.995-.421A2.8,2.8,0,0,1,808.179,300.074Z" transform="translate(-782.054 -261.165)" fill="#bece20"/>
      <path id="Path_79" data-name="Path 79" d="M318.41,176.515a4.308,4.308,0,0,0-3.057-.81,3.389,3.389,0,0,0,4.12,3.788A4.32,4.32,0,0,0,318.41,176.515Z" transform="translate(-354.445 -152.969)" fill="#bece20"/>
      <path id="Path_11" data-name="Path 11" d="M437.665,286.478l.215-.255a17.652,17.652,0,0,1,6.11-4.754,11.751,11.751,0,0,1,7.823-.67,10.705,10.705,0,0,0-8.411-.979,15.348,15.348,0,0,0-7.31,4.869l-.241.287a20.82,20.82,0,0,0-2.373,3.567c0-.347-.023-.694-.021-1.041v-.345a32.622,32.622,0,0,1,.87-7.942,14.289,14.289,0,0,1,4.044-6.853,9.314,9.314,0,0,0-1.749,1.107c-.068.051-.132.11-.2.164-.1.087-.206.172-.307.262a13.128,13.128,0,0,0-3.433,4.739,22.512,22.512,0,0,0-1.575,8.5v.364c0,1.736.168,15.214.27,23.318l-.011,4.716v1.132s.036,1.668.032,1.813-.013.3-.03.457a5.477,5.477,0,0,1-.174.9,4.455,4.455,0,0,1-.79,1.581,4.551,4.551,0,0,1-.981.915,4.552,4.552,0,0,1-.981-.915,4.486,4.486,0,0,1-.79-1.581,5.687,5.687,0,0,1-.172-.9c-.017-.153-.026-.306-.03-.457s.032-1.813.032-1.813v-1.132l-.045-4.716.043-21.026c.028-.755.049-1.524.049-2.292v-.364a22.486,22.486,0,0,0-1.575-8.5,13.129,13.129,0,0,0-3.441-4.737c-.1-.091-.2-.175-.307-.262-.068-.055-.132-.113-.2-.164a9.327,9.327,0,0,0-1.749-1.107,14.484,14.484,0,0,1,4.044,6.853,31.983,31.983,0,0,1,.871,7.942v.345c0,.347-.015.694-.021,1.041a20.716,20.716,0,0,0-2.373-3.567l-.241-.287a20.832,20.832,0,0,0-4.256-3.569,13.4,13.4,0,0,0-3.054-1.3,10.706,10.706,0,0,0-8.411.979,11.752,11.752,0,0,1,7.823.662,17.7,17.7,0,0,1,6.11,4.754l.215.255A17.238,17.238,0,0,1,424.3,292.7l-.011,11.767a6.755,6.755,0,0,0-5.47-2.537,7.916,7.916,0,0,0,0,15.81,6.767,6.767,0,0,0,5.325-2.339s.3,1.913.315,2.156c.011.172.377,2.69.54,3.139a6.774,6.774,0,0,0,1.5,2.452,6.406,6.406,0,0,0,.485.453l-.053.028a12.174,12.174,0,0,0-2.041,1.483,9.325,9.325,0,0,0-.953,1.034c-.057.038-.111.075-.172.109-.1.064-.207.113-.311.172l-.323.145a5.348,5.348,0,0,1-1.945.411,5.479,5.479,0,0,1-2.1-.453,3.7,3.7,0,0,0,3.841,1.262,7.243,7.243,0,0,0-.507,1.577,7.658,7.658,0,0,0-.091,2.369,8.241,8.241,0,0,1,.673-2.181,7.24,7.24,0,0,1,1.232-1.807,8.114,8.114,0,0,1,1.343-1.147,3.163,3.163,0,0,0,.594,1.739,3.059,3.059,0,0,0,1.628,1.111,4.8,4.8,0,0,1-.9-1.509,4.565,4.565,0,0,1-.221-1.567l.019-.281.145-.219c.315-.153.638-.292.964-.423a9.593,9.593,0,0,1,1.026-.343l.258-.077.289-.091.045-.015.047.015.289.091.258.077c.351.1.685.224,1.026.343a12.7,12.7,0,0,1,1.626.772l.009.151a4.479,4.479,0,0,1-.221,1.567,4.732,4.732,0,0,1-.9,1.509,2.979,2.979,0,0,0,2.186-2.5,7.738,7.738,0,0,1,.871.8,7.18,7.18,0,0,1,1.23,1.807,8.17,8.17,0,0,1,.675,2.181,7.719,7.719,0,0,0-.09-2.369,7.25,7.25,0,0,0-.5-1.566,3.7,3.7,0,0,0,3.792-1.273,5.5,5.5,0,0,1-2.1.453,5.338,5.338,0,0,1-1.943-.411l-.323-.145c-.1-.059-.211-.108-.313-.172-.028-.015-.053-.034-.081-.051a9.129,9.129,0,0,0-1-1.092,12.068,12.068,0,0,0-2.039-1.483l-.055-.028a6.4,6.4,0,0,0,.485-.453,6.779,6.779,0,0,0,1.509-2.452,7.591,7.591,0,0,0,.349-1.373c.025-.151.117-1.111.177-1.766.04-.407.061-.815.066-1.226l.108-7.636c.028-2.641,1.577-3.961,3.654-3.961,1.922,0,3.456,1,3.456,3.927v8.772h3.109v-9.225c0-4.15-2.364-6.235-5.659-6.235a5.164,5.164,0,0,0-4.558,2.452V291.992A17.8,17.8,0,0,1,437.665,286.478Zm-18.158,28.407a5.046,5.046,0,0,1,0-10.09,5.045,5.045,0,0,1,0,10.09Z" transform="translate(-434.042 -237.105)" fill="#4f5b60"/>
    </g>
  </g>
</svg>
